<?xml version="1.0" encoding="UTF-8" standalone="no"?>
<!-- Created with Inkscape (http://www.inkscape.org/) -->

<svg
   xmlns:dc="http://purl.org/dc/elements/1.1/"
   xmlns:cc="http://creativecommons.org/ns#"
   xmlns:rdf="http://www.w3.org/1999/02/22-rdf-syntax-ns#"
   xmlns:svg="http://www.w3.org/2000/svg"
   xmlns="http://www.w3.org/2000/svg"
   xmlns:sodipodi="http://sodipodi.sourceforge.net/DTD/sodipodi-0.dtd"
   xmlns:inkscape="http://www.inkscape.org/namespaces/inkscape"
   width="100%"
   height="100%"
   viewbox="0 0 1024 768"
   preserveAspectRatio="xMinYMin meet"
   id="hsi"
   version="1.1"
   inkscape:version="0.48.4 r9939"
   sodipodi:docname="HSI.svg">
  <title
     id="title4639">FlightGear RBAR EFIS (HSI)</title>
  <defs
     id="defs2987" />
  <sodipodi:namedview
     id="base"
     pagecolor="#000000"
     bordercolor="#666666"
     borderopacity="1.0"
     inkscape:pageopacity="0.85882353"
     inkscape:pageshadow="2"
     inkscape:zoom="1.1506348"
     inkscape:cx="664.78635"
     inkscape:cy="197.52355"
     inkscape:document-units="px"
     inkscape:current-layer="FixedElements"
     showgrid="false"
     inkscape:window-width="1920"
     inkscape:window-height="1177"
     inkscape:window-x="0"
     inkscape:window-y="0"
     inkscape:window-maximized="1"
     showguides="true"
     inkscape:guide-bbox="true">
    <sodipodi:guide
       orientation="1,0"
       position="374.57584,353.50052"
       id="guide3089" />
  </sodipodi:namedview>
  <metadata
     id="metadata2990">
    <rdf:RDF>
      <cc:Work
         rdf:about="">
        <dc:format>image/svg+xml</dc:format>
        <dc:type
           rdf:resource="http://purl.org/dc/dcmitype/StillImage" />
        <dc:title>FlightGear RBAR EFIS (HSI)</dc:title>
        <dc:creator>
          <cc:Agent>
            <dc:title>Torsten Dreyer</dc:title>
          </cc:Agent>
        </dc:creator>
        <dc:rights>
          <cc:Agent>
            <dc:title>Torsten Dreyer</dc:title>
          </cc:Agent>
        </dc:rights>
        <dc:publisher>
          <cc:Agent>
            <dc:title>flightgear.org</dc:title>
          </cc:Agent>
        </dc:publisher>
        <cc:license
           rdf:resource="http://www.gnu.org/licenses/gpl-2.0.html" />
        <dc:date>2014-08-01</dc:date>
      </cc:Work>
    </rdf:RDF>
  </metadata>
  <g
     inkscape:groupmode="layer"
     id="layer2"
     inkscape:label="Background"
     sodipodi:insensitive="true">
    <rect
       style="opacity:0.98999999;fill:#000000;fill-opacity:1;stroke:none"
       id="rect3982"
       width="1034"
       height="778"
       x="-5"
       y="-4.9999695" />
  </g>
  <g
     inkscape:groupmode="layer"
     id="Compass"
     data-bind="attr: { transform: compassAnimation }"
     inkscape:label="Compass"
     style="display:inline">
    <path
       id="path3979"
       style="fill:#ffffff;fill-opacity:1;stroke:none"
       d="m 687.38338,128.30309 c 1.51747,-2.62643 3.00517,-4.5832 4.46312,-5.8702 1.47387,-1.2912 2.99249,-2.06495 4.5559,-2.32134 1.57348,-0.25058 3.16894,0.0906 4.7864,1.02394 1.19285,0.68816 2.09906,1.53425 2.71863,2.53817 0.62537,0.99392 0.96859,2.11451 1.02965,3.36196 0.0668,1.23735 -0.10936,2.60384 -0.52863,4.09939 -0.4135,1.48554 -1.25641,3.32936 -2.52873,5.53156 -1.50582,2.60622 -2.9906,4.55794 -4.45436,5.85495 -1.45795,1.287 -2.97658,2.06075 -4.55589,2.32143 -1.5634,0.25639 -3.15887,-0.0848 -4.7864,-1.02394 -2.14313,-1.23649 -3.38271,-2.97528 -3.71876,-5.21645 -0.39774,-2.6943 0.60862,-6.12745 3.01907,-10.29947 m 2.80526,1.6184 c -2.10695,3.64675 -3.08606,6.32122 -2.93726,8.02331 0.16472,1.6979 0.87384,2.90837 2.12738,3.6316 1.2535,0.72323 2.65502,0.72361 4.20456,0 1.55963,-0.71646 3.39002,-2.89302 5.49115,-6.52967 2.11277,-3.65685 3.08681,-6.33418 2.9221,-8.03208 -0.15464,-1.69199 -0.86881,-2.90541 -2.14255,-3.64027 -1.25352,-0.72323 -2.56073,-0.77022 -3.9216,-0.14116 -1.72224,0.81121 -3.63684,3.04019 -5.74378,6.68694 m -23.0181,-6.49145 2.93955,1.21104 c -0.5796,1.7264 -0.6938,3.14884 -0.34261,4.26733 0.36713,1.11421 1.09154,1.98336 2.1732,2.60747 1.28383,0.74067 2.6223,0.92024 4.0154,0.5387 1.40319,-0.37572 2.48417,-1.22019 3.24293,-2.5334 0.72369,-1.2527 0.90959,-2.51921 0.55771,-3.79983 -0.34611,-1.29062 -1.15096,-2.30046 -2.41457,-3.02951 -0.51557,-0.29747 -1.21586,-0.56672 -2.10087,-0.80796 l 1.68652,-2.21916 c 0.17026,0.12515 0.31101,0.21989 0.42222,0.28403 1.16252,0.67072 2.38391,0.97124 3.66413,0.90175 1.2802,-0.0696 2.28509,-0.73571 3.01467,-1.99841 0.57778,-1.00002 0.71772,-2.02377 0.41981,-3.07116 -0.29796,-1.04739 -0.98271,-1.88014 -2.05425,-2.49843 -1.06147,-0.61238 -2.1386,-0.78928 -3.23141,-0.53089 -1.09286,0.25849 -2.12558,0.99611 -3.09816,2.21287 l -2.44929,-2.05961 c 1.38999,-1.63591 2.96527,-2.61274 4.72585,-2.93045 1.76638,-0.32779 3.52907,0.0157 5.28805,1.03051 1.21306,0.69988 2.17835,1.60695 2.8959,2.72135 0.72333,1.10419 1.09317,2.26043 1.10954,3.46861 0.0264,1.21399 -0.2522,2.3261 -0.8358,3.33622 -0.55451,0.9597 -1.31712,1.68484 -2.28792,2.17532 -0.9708,0.49048 -2.0959,0.67643 -3.37525,0.55786 1.13905,1.06131 1.79528,2.28169 1.96868,3.66124 0.17921,1.36955 -0.14557,2.7715 -0.97432,4.20595 -1.12061,1.93951 -2.7796,3.17791 -4.97692,3.715 -2.19152,0.52698 -4.36895,0.16651 -6.53226,-1.08161 -1.95104,-1.12564 -3.23795,-2.64254 -3.86072,-4.55079 -0.61265,-1.90244 -0.47592,-3.83042 0.41018,-5.78404 M 293.00095,228.96138 c -2.62833,-1.51642 -4.58645,-3.00301 -5.87436,-4.45996 -1.29215,-1.47277 -2.0665,-2.99033 -2.32305,-4.5526 -0.25071,-1.57237 0.0908,-3.16666 1.02466,-4.78297 0.68872,-1.19198 1.53542,-2.09754 2.54007,-2.71669 0.99458,-0.62487 2.11602,-0.9679 3.36433,-1.0289 1.23824,-0.0667 2.60567,0.10932 4.10234,0.52822 1.48656,0.41318 3.33171,1.25555 5.53549,2.52692 2.60812,1.5047 4.56118,2.98843 5.85918,4.45119 1.2879,1.45685 2.06226,2.97442 2.32309,4.5527 0.25654,1.56227 -0.0851,3.15656 -1.02468,4.78288 -1.23733,2.14157 -2.97739,3.38025 -5.22016,3.71604 -2.69624,0.39755 -6.13188,-0.60809 -10.30691,-3.01683 m 1.61963,-2.80333 c 3.64936,2.10555 6.32571,3.08393 8.02904,2.93524 1.69908,-0.1646 2.91047,-0.87325 3.63419,-2.12585 0.72372,-1.25269 0.72416,-2.65312 9.6e-4,-4.20156 -0.717,-1.55855 -2.89511,-3.3876 -6.53436,-5.48724 -3.65946,-2.11127 -6.33872,-3.0845 -8.03782,-2.91999 -1.69321,0.1545 -2.90751,0.8682 -3.64293,2.141 -0.7237,1.2526 -0.77078,2.55895 -0.14125,3.91887 0.81183,1.72096 3.04243,3.63417 6.69176,5.73953 m -11.59982,20.07729 c -2.62833,-1.51633 -4.58645,-3.00301 -5.87435,-4.45986 -1.29216,-1.47277 -2.06651,-2.99034 -2.32307,-4.5526 -0.2507,-1.57237 0.0908,-3.16676 1.02467,-4.78298 0.68872,-1.19197 1.53541,-2.09754 2.54007,-2.71669 0.99457,-0.62487 2.11603,-0.9679 3.36434,-1.0289 1.23823,-0.0667 2.60567,0.10923 4.10232,0.52823 1.48657,0.41318 3.33172,1.25555 5.5355,2.52692 2.60812,1.5047 4.56118,2.98843 5.85919,4.45119 1.28789,1.45685 2.06224,2.97442 2.32308,4.5526 0.25654,1.56227 -0.0851,3.15666 -1.02468,4.78297 -1.23734,2.14158 -2.9774,3.38026 -5.22017,3.71605 -2.69623,0.39755 -6.13187,-0.60819 -10.3069,-3.01693 m 1.61963,-2.80324 c 3.64935,2.10555 6.32571,3.08394 8.02904,2.93525 1.69908,-0.1647 2.91046,-0.87325 3.63419,-2.12585 0.7237,-1.25269 0.72417,-2.65322 9.5e-4,-4.20157 -0.71699,-1.55855 -2.8951,-3.38759 -6.53435,-5.48723 -3.65946,-2.11127 -6.33873,-3.0846 -8.0378,-2.92 -1.69323,0.1545 -2.90754,0.8682 -3.64295,2.14101 -0.72371,1.25259 -0.77078,2.55885 -0.14126,3.91887 0.81184,1.72096 3.04243,3.63417 6.69177,5.73952 m -6.49611,23.00167 1.21192,-2.93753 c 1.72761,0.57931 3.15108,0.6934 4.27037,0.34246 1.11505,-0.36686 1.98481,-1.09085 2.60932,-2.17169 0.74122,-1.28291 0.92092,-2.62043 0.5391,-4.01256 -0.37599,-1.40215 -1.22107,-2.48232 -2.53523,-3.24053 -1.25353,-0.72314 -2.52103,-0.9089 -3.8025,-0.5573 -1.29158,0.34589 -2.30214,1.15014 -3.03171,2.41284 -0.29765,0.51516 -0.56717,1.21504 -0.80857,2.09935 l -2.22075,-1.68531 c 0.1253,-0.17014 0.22004,-0.31082 0.28423,-0.42195 0.67121,-1.16167 0.97201,-2.38215 0.90242,-3.66153 -0.0696,-1.27919 -0.7362,-2.2834 -1.99983,-3.01244 -1.00079,-0.57731 -2.02525,-0.71723 -3.07339,-0.41957 -1.04811,0.29776 -1.8815,0.98201 -2.50019,2.05284 -0.61281,1.06064 -0.7899,2.137 -0.53127,3.22909 0.25866,1.09209 0.99682,2.12404 2.21445,3.09585 l -2.06106,2.44762 c -1.63712,-1.38899 -2.61465,-2.96317 -2.93259,-4.72244 -0.32804,-1.7651 0.0157,-3.52657 1.03125,-5.28422 0.7004,-1.21228 1.60816,-2.17685 2.72329,-2.89388 1.10506,-0.72285 2.26209,-1.09238 3.47112,-1.10877 1.21487,-0.0267 2.32776,0.252 3.33865,0.83522 0.96038,0.55405 1.68597,1.31617 2.1768,2.28626 0.49086,0.97019 0.67696,2.0944 0.55833,3.37282 1.06201,-1.13822 2.28331,-1.79397 3.66389,-1.96725 1.37047,-0.17909 2.77344,0.14545 4.20891,0.97362 1.94095,1.11983 3.18016,2.7776 3.71768,4.97341 0.52739,2.1899 0.16658,4.36579 -1.08241,6.52757 -1.12643,1.94962 -2.64446,3.23557 -4.55405,3.85787 -1.90378,0.61219 -3.83317,0.47561 -5.78817,-0.40985 M 404.03546,126.10642 c -1.51746,-2.62643 -2.46939,-4.8923 -2.85578,-6.7975 -0.3821,-1.92111 -0.2934,-3.62225 0.26611,-5.10341 0.56962,-1.48687 1.66316,-2.69697 3.28059,-3.63015 1.19288,-0.68818 2.37923,-1.04939 3.55908,-1.08359 1.17401,-0.0442 2.31683,0.21903 3.42843,0.78989 1.10578,0.56082 2.2019,1.39654 3.2884,2.50713 1.08066,1.10067 2.25716,2.75205 3.52952,4.95415 1.50579,2.60632 2.4548,4.86704 2.84703,6.78234 0.38636,1.9052 0.29766,3.60634 -0.2661,5.10341 -0.55953,1.48116 -1.65307,2.69125 -3.28059,3.63017 -2.14314,1.23649 -4.26986,1.43979 -6.38018,0.61 -2.53388,-1.00288 -5.00604,-3.59042 -7.41651,-7.76244 m 2.80526,-1.61841 c 2.10696,3.64675 3.93521,5.83122 5.48472,6.5535 1.55381,0.70636 2.95747,0.69797 4.21101,-0.0257 1.2535,-0.72314 1.95465,-1.9358 2.10344,-3.63799 0.15889,-1.7079 -0.81221,-4.38018 -2.91335,-8.01683 -2.11279,-3.65685 -3.94609,-5.83846 -5.49988,-6.54482 -1.54371,-0.71217 -2.95242,-0.70083 -4.22616,0.0343 -1.2535,0.72323 -1.94788,1.83095 -2.08312,3.32316 -0.15805,1.89605 0.81638,4.66745 2.92334,8.3142 m -17.13495,16.67416 2.51931,-1.93837 c 1.20637,1.36478 2.38202,2.17484 3.52697,2.43009 1.14922,0.23942 2.26465,0.0467 3.34632,-0.57693 1.28384,-0.74067 2.10871,-1.80922 2.47459,-3.20564 0.37597,-1.40214 0.18459,-2.75987 -0.57413,-4.07309 -0.72374,-1.25259 -1.72847,-2.04683 -3.0142,-2.38252 -1.2916,-0.3458 -2.56919,-0.15422 -3.83281,0.57483 -0.51557,0.29737 -1.09912,0.76879 -1.75068,1.41405 l -1.07996,-2.56905 c 0.19363,-0.0848 0.34604,-0.15927 0.45725,-0.22341 1.16253,-0.67072 2.03373,-1.57743 2.61357,-2.72013 0.57984,-1.1426 0.50499,-2.34526 -0.22456,-3.60805 -0.57781,-1.00002 -1.39506,-1.63299 -2.45172,-1.89891 -1.05668,-0.26583 -2.12079,-0.0896 -3.19236,0.5286 -1.06143,0.61238 -1.75336,1.45609 -2.07579,2.53102 -0.32244,1.07503 -0.19954,2.33754 0.36869,3.78753 l -3.00957,1.0899 c -0.7228,-2.02091 -0.78173,-3.87255 -0.17679,-5.555 0.59911,-1.69256 1.77815,-3.04629 3.53712,-4.06108 1.21309,-0.69988 2.48187,-1.0817 3.80638,-1.14546 1.31868,-0.0734 2.50562,0.18424 3.56083,0.77413 1.06535,0.58417 1.88983,1.38126 2.47348,2.39139 0.55445,0.9597 0.80153,1.98231 0.74122,3.06763 -0.0603,1.08542 -0.46169,2.15206 -1.20412,3.19993 1.48926,-0.45512 2.87505,-0.4128 4.15737,0.12695 1.27647,0.52965 2.3291,1.51166 3.15788,2.94611 1.12057,1.93951 1.3643,3.99436 0.73112,6.16453 -0.63902,2.16006 -2.0402,3.86416 -4.20352,5.11227 -1.95104,1.12555 -3.90914,1.48087 -5.87428,1.0656 -1.95504,-0.421 -3.55758,-1.50327 -4.8076,-3.24692 m -17.28645,9.97312 2.51932,-1.93837 c 1.20636,1.36478 2.38201,2.17484 3.52696,2.43018 1.14922,0.23943 2.26466,0.0467 3.34632,-0.57702 1.28385,-0.74067 2.1087,-1.80922 2.4746,-3.20555 0.37597,-1.40214 0.18459,-2.75987 -0.57413,-4.07318 -0.72374,-1.2526 -1.72846,-2.04674 -3.0142,-2.38252 -1.29159,-0.3458 -2.56919,-0.15422 -3.83282,0.57482 -0.51556,0.29748 -1.09912,0.76889 -1.75067,1.41416 l -1.07997,-2.56915 c 0.19364,-0.0848 0.34605,-0.15917 0.45726,-0.22332 1.16253,-0.67071 2.03372,-1.57742 2.61357,-2.72012 0.57985,-1.14261 0.50498,-2.34536 -0.22458,-3.60806 -0.5778,-1.00011 -1.39504,-1.63308 -2.45171,-1.89891 -1.05666,-0.26582 -2.12079,-0.0896 -3.19234,0.52851 -1.06145,0.61238 -1.75339,1.45609 -2.07583,2.53102 -0.32242,1.07503 -0.1995,2.33754 0.36872,3.78763 l -3.00958,1.0898 c -0.72279,-2.02082 -0.78172,-3.87255 -0.17678,-5.555 0.59911,-1.69247 1.77815,-3.04619 3.53711,-4.06108 1.21311,-0.69978 2.48189,-1.0816 3.80639,-1.14537 1.31867,-0.0734 2.50562,0.18414 3.56084,0.77403 1.06533,0.58417 1.88982,1.38137 2.47347,2.39149 0.55446,0.9597 0.80152,1.98221 0.7412,3.06754 -0.0603,1.08542 -0.46168,2.15206 -1.2041,3.20002 1.48925,-0.45521 2.87505,-0.41289 4.15737,0.12686 1.27646,0.52965 2.32909,1.51175 3.15787,2.94611 1.12059,1.93961 1.3643,3.99445 0.73114,6.16462 -0.63904,2.16007 -2.04022,3.86407 -4.20353,5.11218 -1.95105,1.12564 -3.90914,1.48087 -5.87428,1.06569 -1.95504,-0.42099 -3.55757,-1.50336 -4.80761,-3.24701 m 421.29244,88.42884 c 2.62832,-1.51632 4.89578,-2.46754 6.80235,-2.85365 1.92248,-0.38183 3.62484,-0.29319 5.10706,0.26592 1.48802,0.5692 2.69896,1.66196 3.63281,3.27827 0.68868,1.19198 1.05013,2.37748 1.08437,3.55649 0.0443,1.1732 -0.2192,2.31514 -0.79047,3.42591 -0.56122,1.10506 -1.39755,2.20039 -2.50897,3.28609 -1.10139,1.07989 -2.75394,2.25557 -4.95769,3.52704 -2.60813,1.5047 -4.87055,2.45296 -6.78718,2.84489 -1.90658,0.38611 -3.60892,0.29747 -5.10707,-0.26592 -1.4822,-0.55911 -2.69314,-1.65177 -3.6328,-3.27818 -1.23733,-2.14158 -1.44082,-4.26676 -0.61044,-6.37564 1.00365,-2.53208 3.593,-5.00239 7.76803,-7.41122 m 1.61961,2.80333 c -3.64936,2.10546 -5.83546,3.93231 -6.55827,5.48085 -0.70687,1.55264 -0.69846,2.95526 0.0252,4.20786 0.72372,1.25269 1.93725,1.95333 3.6406,2.10202 1.70917,0.15879 4.38338,-0.81168 8.02265,-2.91122 3.65944,-2.11137 5.84262,-3.94337 6.54951,-5.49601 0.71269,-1.54263 0.70134,-2.9503 -0.034,-4.2231 -0.72375,-1.2526 -1.83227,-1.94648 -3.32561,-2.08163 -1.8974,-0.15793 -4.67079,0.81578 -8.32013,2.92123 m 2.3997,-9.2841 -1.77938,-2.58983 c 0.93147,-0.86067 1.51142,-1.6532 1.73987,-2.37767 0.35232,-1.18654 0.21622,-2.32019 -0.40825,-3.40113 -0.50196,-0.86868 -1.18523,-1.49135 -2.0498,-1.86803 -1.12289,-0.49705 -2.42879,-0.64612 -3.91774,-0.44701 -1.48897,0.19901 -3.35128,0.93005 -5.58692,2.19285 1.38015,0.0791 2.58715,0.45369 3.62103,1.12326 1.03384,0.66966 1.85135,1.52471 2.45252,2.56524 1.05055,1.81827 1.27127,3.75169 0.66217,5.80024 -0.59317,2.05275 -1.95119,3.69155 -4.07407,4.91631 -1.39505,0.80482 -2.86917,1.25117 -4.42232,1.33915 -1.53722,0.0924 -2.92776,-0.20331 -4.1716,-0.88641 -1.24387,-0.6832 -2.251,-1.69142 -3.02141,-3.02493 -1.3132,-2.27283 -1.55019,-4.6077 -0.71098,-7.00442 0.84932,-2.40264 3.19468,-4.71206 7.03613,-6.92837 4.29632,-2.47869 7.87817,-3.48786 10.74554,-3.0275 2.49788,0.40412 4.42388,1.77796 5.77796,4.1216 1.00967,1.74755 1.34524,3.45984 1.0067,5.13677 -0.33276,1.68703 -1.29923,3.14026 -2.89945,4.35988 M 781.713,227.47499 c -0.94016,0.54233 -1.72604,1.25841 -2.35767,2.14815 -0.62582,0.89975 -0.95899,1.83954 -0.9995,2.81925 -0.0304,0.97381 0.182,1.85469 0.63724,2.64264 0.66535,1.15166 1.70235,1.87327 3.11097,2.16502 1.40861,0.29185 2.91153,-0.0229 4.50876,-0.94445 1.53657,-0.8866 2.50822,-1.9927 2.91496,-3.31831 0.41683,-1.33151 0.2663,-2.61842 -0.45155,-3.86091 -0.71206,-1.23249 -1.76095,-2.02139 -3.14661,-2.3668 -1.37559,-0.35123 -2.78114,-0.11285 -4.2166,0.71541 m 37.6183,148.53157 25.66868,0 0,18.54667 -3.02909,0 0,-15.15231 -7.86171,0 0,14.18994 -3.0116,0 0,-14.18994 -8.73716,0 0,15.74715 -3.02912,0 0,-19.14151 m -558.66262,14.57481 -25.6687,6.80626 0,-3.48186 16.82649,-3.90181 c 1.76261,-0.41994 3.51354,-0.78146 5.25279,-1.08475 -2.74312,-0.65317 -4.3248,-1.03814 -4.74503,-1.1548 l -17.33425,-4.88162 0,-4.09425 12.99193,-3.6743 c 3.22174,-0.92148 6.25085,-1.58638 9.08735,-1.9946 -1.62253,-0.32664 -3.48435,-0.7524 -5.58547,-1.27728 l -16.49381,-4.02429 0,-3.4119 25.6687,7.03378 0,3.27179 -19.55794,5.4066 c -1.63418,0.45493 -2.63805,0.72314 -3.01161,0.80482 1.17899,0.26831 2.18286,0.51907 3.01161,0.7523 l 19.55794,5.44158 0,3.46433 m 20.55502,129.08866 c -2.62835,1.51643 -4.89578,2.46764 -6.80237,2.85376 -1.92248,0.38182 -3.62483,0.29318 -5.10704,-0.26593 -1.48804,-0.5692 -2.69897,-1.66196 -3.63283,-3.27827 -0.68867,-1.19198 -1.05012,-2.37747 -1.08435,-3.55649 -0.0443,-1.1732 0.2192,-2.31514 0.79046,-3.42601 0.56121,-1.10496 1.39754,-2.20029 2.50898,-3.28599 1.10138,-1.07989 2.75392,-2.25557 4.95768,-3.52695 2.60814,-1.50479 4.87054,-2.45305 6.78719,-2.84507 1.90656,-0.38602 3.60891,-0.29738 5.10706,0.26592 1.48221,0.5592 2.69313,1.65186 3.6328,3.27827 1.23733,2.14158 1.44082,4.26676 0.61044,6.37565 -1.00366,2.53197 -3.593,5.00238 -7.76802,7.41111 m -1.61962,-2.80323 c 3.64937,-2.10546 5.83546,-3.93241 6.55827,-5.48076 0.70687,-1.55273 0.69845,-2.95535 -0.0252,-4.20804 -0.72372,-1.25251 -1.93724,-1.95324 -3.64059,-2.10193 -1.70917,-0.1587 -4.38339,0.81168 -8.02265,2.91132 -3.65944,2.11127 -5.84262,3.94317 -6.54951,5.49591 -0.71269,1.54254 -0.70135,2.9503 0.034,4.22311 0.72376,1.25269 1.83227,1.94656 3.3256,2.08172 1.89742,0.15793 4.67078,-0.81588 8.32014,-2.92133 m 17.51174,5.00915 -5.32241,3.07068 5.56797,9.63705 -2.50199,1.4435 -20.26223,-1.82618 -1.28694,-2.22736 14.40536,-8.31106 -1.73342,-3.00015 2.50198,-1.44351 1.73343,3.00025 5.32241,-3.07069 1.57584,2.72747 m -7.8244,4.51419 -10.0231,5.78261 14.0415,1.17244 -4.0184,-6.95505 m 11.95096,8.68192 2.62329,-1.51347 8.48327,14.68299 c -0.6454,0.39926 -1.33851,0.65775 -2.07929,0.77527 -1.21675,0.20368 -2.54671,0.17633 -3.98994,-0.082 -1.44906,-0.2684 -3.25985,-0.81302 -5.4324,-1.63385 -3.37628,-1.27118 -5.88576,-1.99861 -7.52846,-2.18227 -1.65279,-0.17786 -2.99474,0.0305 -4.02589,0.62553 -1.08163,0.62401 -1.76674,1.53787 -2.05531,2.74148 -0.30448,1.19931 -0.0978,2.42027 0.62007,3.66276 0.75876,1.31322 1.76,2.13634 3.00372,2.46936 1.24378,0.33302 2.56608,0.10217 3.96695,-0.69254 l 1.3315,2.96946 c -2.20343,1.01536 -4.21291,1.21161 -6.02844,0.58893 -1.82556,-0.61695 -3.34828,-1.98107 -4.56813,-4.09233 -1.23145,-2.13148 -1.61476,-4.15963 -1.14992,-6.08456 0.4649,-1.92484 1.57177,-3.39179 3.3206,-4.40077 0.88963,-0.51326 1.86911,-0.83589 2.93847,-0.968 1.06938,-0.1321 2.32434,-0.0477 3.76482,0.25239 1.4347,0.29023 3.54711,0.93692 6.33725,1.94018 2.32033,0.84333 3.86241,1.35439 4.62622,1.53329 0.75372,0.18472 1.46579,0.28575 2.13622,0.303 l -6.2946,-10.89479 m 486.51764,4.67937 c 2.62832,1.51633 4.58643,3.00292 5.87435,4.45986 1.29216,1.47287 2.06653,2.99043 2.32307,4.5527 0.25072,1.57227 -0.0908,3.16657 -1.02466,4.78288 -0.68874,1.19197 -1.53543,2.09754 -2.54008,2.71669 -0.99459,0.62496 -2.11604,0.9679 -3.36433,1.0289 -1.23822,0.0667 -2.60567,-0.10923 -4.10233,-0.52823 -1.48659,-0.41317 -3.33173,-1.25555 -5.53548,-2.52692 -2.60816,-1.5047 -4.56125,-2.98843 -5.85919,-4.45119 -1.28791,-1.45685 -2.06227,-2.97442 -2.32308,-4.5526 -0.25654,-1.56227 0.0851,-3.15656 1.02466,-4.78297 1.23732,-2.14158 2.9774,-3.38026 5.22016,-3.71605 2.69625,-0.39745 6.13188,0.6081 10.30691,3.01693 m -1.61961,2.80324 c -3.64939,-2.10555 -6.32575,-3.08394 -8.02907,-2.93525 -1.69907,0.16461 -2.91043,0.87335 -3.63416,2.12585 -0.72371,1.25269 -0.7242,2.65322 -9.5e-4,4.20166 0.71696,1.55846 2.89509,3.3875 6.53433,5.48714 3.65944,2.11127 6.33873,3.0846 8.03778,2.92 1.69324,-0.1545 2.90758,-0.8682 3.64297,-2.14101 0.72371,-1.25259 0.77079,-2.55895 0.14122,-3.91887 -0.81182,-1.72086 -3.04239,-3.63417 -6.69172,-5.73952 m -5.02206,-10.55453 -2.62333,-1.51347 8.48329,-14.68298 c 0.66874,0.35894 1.23932,0.8295 1.71159,1.41177 0.78483,0.95122 1.42612,2.11584 1.92386,3.49396 0.49186,1.38832 0.92525,3.22757 1.30018,5.51812 0.58647,3.55754 1.21079,6.09295 1.87295,7.60641 0.67229,1.51919 1.52396,2.5763 2.55511,3.17124 1.08168,0.62401 2.21618,0.76002 3.40356,0.40794 1.19162,-0.33617 2.14639,-1.12555 2.86427,-2.36804 0.75874,-1.31322 0.97145,-2.59126 0.63818,-3.83414 -0.33323,-1.24287 -1.19445,-2.27177 -2.58369,-3.08669 l 1.90774,-2.63701 c 1.98163,1.39918 3.15652,3.04008 3.5246,4.9226 0.37814,1.88833 -0.0427,3.88808 -1.26247,5.99945 -1.23154,2.13138 -2.79758,3.47719 -4.6982,4.03734 -1.90065,0.56015 -3.72542,0.33569 -5.47429,-0.67329 -0.88961,-0.51316 -1.65896,-1.19951 -2.30809,-2.05894 -0.64915,-0.85943 -1.20372,-1.98755 -1.66372,-3.38426 -0.46582,-1.3867 -0.96157,-3.53819 -1.48718,-6.45437 -0.42929,-2.42971 -0.75741,-4.01971 -0.98428,-4.7702 -0.2167,-0.74468 -0.48522,-1.41139 -0.80547,-2.00013 l -6.29461,10.89469 m 9.70325,-22.84841 1.57585,-2.72746 17.39258,10.03441 c -0.24738,-1.01823 -0.37511,-2.24357 -0.3832,-3.67592 -0.014,-1.42235 0.0675,-2.64816 0.24443,-3.67744 l 2.63846,1.52223 c -0.16358,1.93942 -0.0646,3.77438 0.29689,5.50497 0.36147,1.73058 0.88523,3.11023 1.57131,4.13913 l -1.01555,1.75766 -22.32077,-12.87758 M 677.00361,642.46103 c 1.51745,2.62643 2.46938,4.8923 2.85577,6.7975 0.38211,1.92112 0.29341,3.62226 -0.26611,5.10332 -0.56962,1.48697 -1.66317,2.69705 -3.28058,3.63026 -1.19289,0.68816 -2.37926,1.04939 -3.55909,1.08361 -1.17401,0.0438 -2.31684,-0.21913 -3.42842,-0.78995 -1.10577,-0.56082 -2.20191,-1.39652 -3.28841,-2.5071 -1.08066,-1.10067 -2.25716,-2.75196 -3.52951,-4.95416 -1.50578,-2.60632 -2.45478,-4.86703 -2.84702,-6.78234 -0.38637,-1.9052 -0.29768,-3.60634 0.2661,-5.10341 0.55952,-1.48116 1.65304,-2.69124 3.28057,-3.63026 2.14313,-1.2364 4.26986,-1.4397 6.38018,-0.60991 2.5339,1.00288 5.00606,3.59042 7.41652,7.76244 m -2.80527,1.6185 c -2.10697,-3.64684 -3.93518,-5.83131 -5.48474,-6.55359 -1.55378,-0.70636 -2.95743,-0.69797 -4.21097,0.0248 -1.2535,0.72314 -1.95467,1.9358 -2.10345,3.63789 -0.15889,1.708 0.81222,4.38028 2.91334,8.01693 2.11279,3.65676 3.94609,5.83846 5.49988,6.54482 1.5437,0.71217 2.95242,0.70083 4.22616,-0.0334 1.25352,-0.72323 1.94789,-1.83095 2.08311,-3.32326 0.15806,-1.89605 -0.81637,-4.66745 -2.92333,-8.31411 m 17.12385,-16.72849 -2.72584,1.89586 c -1.01772,-1.27156 -2.11498,-2.0393 -3.29182,-2.30313 -1.18111,-0.24791 -2.31754,-0.0572 -3.40931,0.57293 -1.31417,0.75821 -2.14017,1.89471 -2.47802,3.40961 -0.33787,1.5148 -0.034,3.09051 0.91148,4.72702 0.89879,1.5556 2.04767,2.52931 3.44661,2.92095 1.38883,0.39755 2.79087,0.18796 4.20613,-0.62849 0.87949,-0.50744 1.55632,-1.16729 2.03047,-1.97964 0.48002,-0.80225 0.73836,-1.63814 0.77504,-2.50786 l 2.75522,-1.14509 4.43905,12.65216 -11.05421,6.37765 -1.50581,-2.60632 8.87067,-5.11781 -2.25144,-6.66129 c -0.79741,1.69923 -1.92904,2.97165 -3.39485,3.81736 -1.94094,1.11973 -3.96671,1.3929 -6.07738,0.81912 -2.11059,-0.57359 -3.77583,-1.91607 -4.99565,-4.02734 -1.16145,-2.01023 -1.579,-4.08605 -1.25264,-6.22734 0.38649,-2.62052 1.81302,-4.64229 4.27962,-6.0654 2.02181,-1.16643 4.00149,-1.55426 5.93898,-1.16357 1.92745,0.39659 3.52201,1.47677 4.7837,3.24062 m 3.64376,-9.86046 2.72943,-1.57466 10.0416,17.38005 c 0.29525,-1.00536 0.79771,-2.13033 1.50741,-3.37483 0.69958,-1.23877 1.38349,-2.25966 2.05173,-3.06267 l 1.52331,2.63663 c -1.11207,1.59791 -1.94453,3.23643 -2.49738,4.91574 -0.55283,1.67931 -0.78959,3.13588 -0.71024,4.3697 l -1.75896,1.01479 -12.8869,-22.30475 m -311.18874,9.49084 c -1.51747,2.62643 -3.00517,4.5832 -4.46313,5.87011 -1.47385,1.29129 -2.99249,2.06504 -4.55589,2.32143 -1.57348,0.25057 -3.16895,-0.0906 -4.7864,-1.02385 -1.19284,-0.68825 -2.09905,-1.53434 -2.71863,-2.53827 -0.62536,-0.99391 -0.96857,-2.1145 -1.02965,-3.36195 -0.0668,-1.23735 0.10936,-2.60375 0.52864,-4.09939 0.41348,-1.48555 1.2564,-3.32937 2.52871,-5.53156 1.50583,-2.60623 2.99062,-4.55784 4.45438,-5.85495 1.45794,-1.28701 2.97658,-2.06075 4.55589,-2.32143 1.5634,-0.25639 3.15885,0.0848 4.7864,1.02394 2.14312,1.23639 3.38271,2.97527 3.71875,5.21645 0.39774,2.6943 -0.60861,6.12745 -3.01907,10.29947 m -2.80526,-1.61841 c 2.10697,-3.64684 3.08606,-6.32122 2.93726,-8.02331 -0.16471,-1.69789 -0.87385,-2.90836 -2.12737,-3.63159 -1.25351,-0.72324 -2.65503,-0.72362 -4.20459,0 -1.55961,0.71646 -3.38999,2.89302 -5.49112,6.52966 -2.11278,3.65686 -3.08682,6.33419 -2.92211,8.03199 0.15465,1.69208 0.86883,2.90551 2.14254,3.64037 1.25353,0.72323 2.56074,0.77022 3.92162,0.14115 1.72224,-0.8112 3.63682,-3.04018 5.74377,-6.68693 m 16.14044,-5.29652 2.72944,1.57466 -10.04162,17.38014 c 1.01897,-0.24724 2.24516,-0.37486 3.67856,-0.38297 1.42332,-0.0143 2.65001,0.0677 3.68009,0.24429 l -1.52332,2.63653 c -1.94083,-0.16346 -3.77715,-0.0648 -5.50898,0.29671 -1.73178,0.36124 -3.11247,0.8846 -4.14207,1.57009 l -1.75897,-1.0148 12.88687,-22.30465 m 11.70805,10.25 1.51455,-2.62147 14.69346,8.47728 c -0.35916,0.66824 -0.83006,1.2384 -1.41276,1.71029 -0.95183,0.78433 -2.11732,1.42511 -3.49645,1.92255 -1.38924,0.49143 -3.22994,0.92453 -5.52213,1.2992 -3.55999,0.58608 -6.09724,1.2099 -7.61178,1.87166 -1.52033,0.67176 -2.57816,1.5228 -3.1735,2.55323 -0.62447,1.08084 -0.76056,2.21458 -0.40824,3.40113 0.3364,1.19074 1.1263,2.14482 2.3697,2.86214 1.31419,0.75821 2.59314,0.97076 3.83687,0.63783 1.24376,-0.33312 2.2734,-1.19369 3.08893,-2.58183 l 2.63892,1.90635 c -1.40021,1.98021 -3.04224,3.15427 -4.92611,3.52208 -1.88967,0.37782 -3.89091,-0.0429 -6.00372,-1.26165 -2.13298,-1.23058 -3.47975,-2.79552 -4.04033,-4.69481 -0.56051,-1.89929 -0.33593,-3.72271 0.67375,-5.47027 0.51363,-0.88898 1.20044,-1.65777 2.06044,-2.30646 0.86005,-0.6487 1.98896,-1.20294 3.38671,-1.66254 1.38769,-0.46551 3.54069,-0.96094 6.45901,-1.48611 2.43143,-0.429 4.02263,-0.75688 4.77363,-0.98363 0.74517,-0.21655 1.41239,-0.48485 2.00163,-0.80491 l -10.90258,-6.29006 m 141.39658,40.83541 -3.20421,0.27993 c -0.15173,-1.2831 -0.50194,-2.33868 -1.05055,-3.16695 -0.5603,-0.81654 -1.42409,-1.48135 -2.5914,-1.9946 -1.16727,-0.50154 -2.48047,-0.75231 -3.9396,-0.75231 -1.29567,0 -2.43962,0.19244 -3.43183,0.57731 -0.99218,0.38497 -1.72757,0.90986 -2.20617,1.57476 -0.49024,0.67652 -0.73537,1.41138 -0.73539,2.20457 2e-5,0.80482 0.23347,1.5047 0.70036,2.09964 0.46694,0.60657 1.23735,1.11392 2.31124,1.52224 0.68872,0.2683 2.21202,0.68234 4.56994,1.24221 2.35794,0.57159 4.00964,1.1081 4.95514,1.60973 1.22566,0.64155 2.142,1.43474 2.74898,2.37957 0.59532,0.95646 0.89297,2.02377 0.89297,3.20193 0,1.29472 -0.36769,2.50195 -1.10309,3.62178 -0.7354,1.13145 -1.80931,1.98879 -3.22173,2.5721 -1.4124,0.58312 -2.9824,0.87478 -4.71,0.87478 -1.90267,0 -3.57773,-0.3091 -5.02518,-0.92739 -1.4591,-0.60657 -2.5797,-1.5047 -3.36179,-2.69449 -0.78208,-1.18978 -1.2023,-2.53702 -1.26068,-4.04163 l 3.25674,-0.24504 c 0.1751,1.62136 0.77042,2.84612 1.78595,3.67429 1.00388,0.82817 2.49217,1.24231 4.46489,1.24231 2.05444,0 3.55439,-0.37916 4.4999,-1.13727 0.93383,-0.74659 1.40075,-1.65063 1.40075,-2.71203 0,-0.92148 -0.33269,-1.67969 -0.99804,-2.27453 -0.65367,-0.59494 -2.35792,-1.20733 -5.11272,-1.83715 -2.76647,-0.61829 -4.66331,-1.16072 -5.69055,-1.62727 -1.4941,-0.68816 -2.5972,-1.56303 -3.30926,-2.62453 -0.71203,-1.04977 -1.06805,-2.26291 -1.06807,-3.63931 2e-5,-1.36478 0.39106,-2.65369 1.17313,-3.86674 0.78209,-1.20151 1.90853,-2.14043 3.3793,-2.81705 1.45913,-0.66481 3.105,-0.99726 4.93764,-0.99726 2.32291,0 4.27229,0.33827 5.84812,1.01479 1.56417,0.67653 2.79566,1.69142 3.69447,3.04448 0.88714,1.36478 1.35406,2.90445 1.40074,4.61913 m -20.32836,-566.50302 0,-25.650292 3.48437,0 13.4822,20.13881 0,-20.13881 3.25673,0 0,25.650292 -3.48437,0 -13.48219,-20.156298 0,20.156298 -3.25674,0"
       inkscape:connector-curvature="0" />
    <path
       id="Circle"
       style="fill:none;stroke:#ffffff;stroke-width:4.99999952;stroke-linecap:square;stroke-linejoin:miter;stroke-miterlimit:4;stroke-opacity:1;stroke-dasharray:none"
       d="m 589.30427,104.3815 3.96445,-22.483539 m 43.84175,35.293209 7.80845,-21.453546 m 77.58907,70.757836 14.67512,-17.48911 m 20.32146,52.4857 17.48911,-14.6751 m 31.81519,100.07264 21.45356,-7.80846 m -8.64391,55.6146 22.48355,-3.96451 m -22.48355,102.5731 22.48355,3.96448 M 435.08103,95.737555 442.8895,117.19113 m 43.84173,-35.293196 3.96447,22.483566 m -55.61465,567.88105 7.80846,-21.4536 m -100.07263,-31.81513 14.6751,-17.4891 m -52.48568,-20.3215 17.48911,-14.67511 m -70.75786,-77.58907 21.45357,-7.80851 m -35.29319,-43.84173 22.48357,-3.96448 m 226.34975,252.79785 3.96447,-22.48357 m -252.79779,-332.88731 22.48357,3.96444 m 546.42738,146.4148 21.45355,7.80845 m -576.52488,-209.83792 21.45357,7.80853 m 484.31345,279.61845 17.48912,14.67512 m -52.48569,20.3215 14.67511,17.48909 m -100.07264,31.8152 7.80846,21.45351 m -55.61466,-8.64386 3.96445,22.48347 M 305.0063,186.81689 l 17.48911,14.6751 m 20.32146,-52.48568 14.67511,17.48911 M 698.72347,658.91717 C 546.89092,746.5777 352.7434,694.55608 265.08284,542.72352 177.42227,390.89098 229.44394,196.74343 381.2765,109.08285 533.10903,21.422296 727.25655,73.443969 814.91712,225.27651 c 87.66058,151.83262 35.6389,345.9801 -116.19365,433.64066 z"
       inkscape:connector-curvature="0" />
    <path
       style="opacity:0.98999999;fill:none;stroke:#3333ff;stroke-width:5;stroke-linecap:square;stroke-linejoin:miter;stroke-miterlimit:4;stroke-opacity:1;stroke-dashoffset:0"
       d="m 517.49998,51.975852 45,0 -22.5,35.46808 z"
       id="HeadingBug"
       inkscape:connector-curvature="0"
       sodipodi:nodetypes="cccc" />
    <path
       id="GreenArrow"
       data-bind="visible: adfVisible"
       style="fill:none;stroke:#00ff00;stroke-width:10;stroke-linecap:square;stroke-linejoin:miter;stroke-miterlimit:4;stroke-opacity:1;stroke-dasharray:none;display:inline"
       d="m 552.83722,591.04275 0,-386.72341 m -36.92904,16.32549 24.0918,-43.68757 24.0918,43.68757 m -36.92904,370.39792 0,-386.72341"
       inkscape:connector-curvature="0"
       sodipodi:nodetypes="ccccccc" />
    <g
       id="VOR"
       data-bind="visible: vorVisible"
       transform="translate(329.71574,9.60343)">
      <path
         sodipodi:nodetypes="cc"
         inkscape:connector-curvature="0"
         id="CDIDeflectionBar"
         d="m 210.28379,440.77248 0,-121.91965"
         style="fill:none;stroke:#ffff00;stroke-width:10;stroke-linecap:butt;stroke-linejoin:miter;stroke-miterlimit:4;stroke-opacity:1;stroke-dasharray:none;display:inline" />
      <path
         id="From"
         d="m 261.08588,539.106 24.0918,43.68757 24.0918,-43.68757"
         style="fill:none;stroke:#ffff00;stroke-width:10;stroke-linecap:square;stroke-linejoin:miter;stroke-miterlimit:4;stroke-opacity:1;stroke-dasharray:none;display:inline"
         inkscape:connector-curvature="0" />
      <path
         id="CDIArrow"
         style="fill:none;stroke:#ffff00;stroke-width:10;stroke-linecap:square;stroke-linejoin:miter;stroke-miterlimit:4;stroke-opacity:1;stroke-dasharray:none;display:inline"
         d="m 186.19226,209.68719 24.0918,-43.68757 24.0918,43.68757 m -24.09207,370.62589 0,-134.49968 m 0,-131.93488 0,-140.84075"
         inkscape:connector-curvature="0" />
      <path
         id="To"
         d="m 261.08588,582.79357 24.0918,-43.68757 24.0918,43.68757"
         style="fill:none;stroke:#ffff00;stroke-width:10;stroke-linecap:square;stroke-linejoin:miter;stroke-miterlimit:4;stroke-opacity:1;stroke-dasharray:none;display:inline"
         inkscape:connector-curvature="0" />
      <path
         id="path4031"
         style="opacity:0.98999999;fill:none;stroke:#ffff00;stroke-width:3;stroke-miterlimit:4;stroke-opacity:1"
         d="m 59.33054,374.46786 c 0.0553,2.9437 -2.15536,5.71801 -5.03206,6.33355 -2.71418,0.6727 -5.75152,-0.65336 -7.10677,-3.09813 -1.49288,-2.50215 -0.99138,-5.96772 1.15422,-7.94057 2.0735,-2.04876 5.5609,-2.38358 7.98804,-0.77083 1.84372,1.16307 3.01706,3.2938 2.99657,5.47598 z m 52.48449,0 c 0.0553,2.9437 -2.15536,5.71801 -5.03206,6.33355 -2.71418,0.6727 -5.75152,-0.65336 -7.10677,-3.09813 -1.49288,-2.50215 -0.99138,-5.96772 1.15422,-7.94057 2.0735,-2.04876 5.5609,-2.38358 7.98804,-0.77083 1.84372,1.16307 3.01706,3.2938 2.99657,5.47598 z m 52.48451,0 c 0.0553,2.9437 -2.15536,5.71801 -5.03206,6.33355 -2.71418,0.6727 -5.75152,-0.65336 -7.10677,-3.09813 -1.49288,-2.50215 -0.99138,-5.96772 1.15422,-7.94057 2.0735,-2.04876 5.5609,-2.38358 7.98804,-0.77083 1.84372,1.16307 3.01706,3.2938 2.99657,5.47598 z m 157.45353,0 c 0.0553,2.9437 -2.15536,5.71801 -5.03206,6.33355 -2.71418,0.6727 -5.75152,-0.65336 -7.10677,-3.09813 -1.49288,-2.50215 -0.99138,-5.96772 1.15422,-7.94057 2.0735,-2.04876 5.5609,-2.38358 7.98804,-0.77083 1.84372,1.16307 3.01706,3.2938 2.99657,5.47598 z m -52.4845,0 c 0.0553,2.9437 -2.15536,5.71801 -5.03206,6.33355 -2.71418,0.6727 -5.75152,-0.65336 -7.10677,-3.09813 -1.49288,-2.50215 -0.99138,-5.96772 1.15422,-7.94057 2.0735,-2.04876 5.5609,-2.38358 7.98804,-0.77083 1.84372,1.16307 3.01706,3.2938 2.99657,5.47598 z m 104.96897,0 c 0.0553,2.9437 -2.15536,5.71801 -5.03206,6.33355 -2.71418,0.6727 -5.75152,-0.65336 -7.10677,-3.09813 -1.49288,-2.50215 -0.99138,-5.96772 1.15422,-7.94057 2.0735,-2.04876 5.5609,-2.38358 7.98804,-0.77083 1.84372,1.16307 3.01706,3.2938 2.99657,5.47598 z m -157.4535,0 c 0.0553,2.9437 -2.15536,5.71801 -5.03206,6.33355 -2.71418,0.6727 -5.75152,-0.65336 -7.10677,-3.09813 -1.49288,-2.50215 -0.99138,-5.96772 1.15422,-7.94057 2.0735,-2.04876 5.5609,-2.38358 7.98804,-0.77083 1.84372,1.16307 3.01706,3.2938 2.99657,5.47598 z"
         inkscape:connector-curvature="0" />
    </g>
  </g>
  <g
     inkscape:groupmode="layer"
     id="FixedElements"
     inkscape:label="FixedElements"
     style="display:inline">
    <path
       id="Labels"
       style="font-size:45px;font-style:normal;font-variant:normal;font-weight:normal;font-stretch:normal;text-align:start;line-height:100%;letter-spacing:0px;word-spacing:0px;writing-mode:lr-tb;text-anchor:start;fill:#ffffff;fill-opacity:1;stroke:none;font-family:Liberation Mono;-inkscape-font-specification:Liberation Mono"
       d="m 888.09369,130.72215 c -3e-5,1.24513 -0.22708,2.39503 -0.68115,3.44971 -0.45413,1.04004 -1.14993,1.94092 -2.08741,2.70264 -0.92287,0.76172 -2.10207,1.35498 -3.53759,1.77978 -1.42092,0.42481 -3.11281,0.63721 -5.07569,0.63721 -3.42774,0 -6.10108,-0.67383 -8.02002,-2.02149 -1.9043,-1.34765 -3.12012,-3.29589 -3.64746,-5.84472 l 4.06494,-0.81299 c 0.17578,0.80567 0.43945,1.53809 0.79102,2.19727 0.35156,0.65918 0.83495,1.23047 1.45019,1.71386 0.61523,0.46876 1.36962,0.83497 2.26319,1.09864 0.89354,0.26367 1.96288,0.39551 3.20801,0.3955 1.05467,1e-5 2.01414,-0.0952 2.87841,-0.28564 0.87889,-0.20508 1.62596,-0.52002 2.24122,-0.94483 0.62986,-0.4248 1.12058,-0.96679 1.47216,-1.62597 0.35155,-0.65918 0.52733,-1.45019 0.52735,-2.37305 -2e-5,-1.02538 -0.24172,-1.86034 -0.7251,-2.50488 -0.46877,-0.64452 -1.09133,-1.17187 -1.86768,-1.58203 -0.77638,-0.41015 -1.65529,-0.73974 -2.63672,-0.98877 -0.96681,-0.26366 -1.94825,-0.52001 -2.94433,-0.76905 -0.73243,-0.19041 -1.47218,-0.38817 -2.21924,-0.59326 -0.74708,-0.21971 -1.46485,-0.46873 -2.15332,-0.74707 -0.68848,-0.29295 -1.33301,-0.62986 -1.93359,-1.01074 -0.58595,-0.39549 -1.10597,-0.86424 -1.56006,-1.40625 -0.43946,-0.55662 -0.7837,-1.20115 -1.03272,-1.93359 -0.24902,-0.74705 -0.37354,-1.61131 -0.37353,-2.59278 -10e-6,-1.40622 0.26367,-2.60739 0.79101,-3.60351 0.52734,-1.01072 1.25244,-1.83103 2.1753,-2.46094 0.92284,-0.6445 2.01415,-1.11325 3.27392,-1.40625 1.25976,-0.29294 2.62206,-0.43942 4.08692,-0.43945 1.6992,3e-5 3.14207,0.15384 4.32861,0.46142 1.20115,0.293 2.21189,0.73978 3.03223,1.34033 0.83494,0.60062 1.50144,1.34769 1.99951,2.24122 0.49802,0.87893 0.89353,1.90432 1.18652,3.07617 l -4.13086,0.72509 c -0.16115,-0.74704 -0.40285,-1.41355 -0.7251,-1.99951 -0.30763,-0.58591 -0.72511,-1.07663 -1.25244,-1.47216 -0.51271,-0.39549 -1.13527,-0.69578 -1.86767,-0.90088 -0.73244,-0.20506 -1.5967,-0.30759 -2.59278,-0.30762 -1.17188,3e-5 -2.15333,0.12454 -2.94433,0.37353 -0.79103,0.23441 -1.42823,0.56399 -1.91162,0.98877 -0.48341,0.41019 -0.83497,0.90091 -1.05469,1.47217 -0.20509,0.57131 -0.30763,1.18655 -0.30762,1.8457 -1e-5,0.87893 0.19042,1.59671 0.57129,2.15333 0.3955,0.54201 0.92284,0.99611 1.58203,1.3623 0.67382,0.35158 1.45019,0.64455 2.3291,0.87891 0.89355,0.23439 1.84569,0.48341 2.85645,0.74707 0.80565,0.20509 1.61864,0.42482 2.43896,0.65918 0.8203,0.21974 1.60399,0.48341 2.35108,0.79101 0.7617,0.30763 1.46482,0.67384 2.10937,1.09863 0.65916,0.41017 1.23045,0.91555 1.71387,1.51612 0.48338,0.6006 0.86423,1.30372 1.14258,2.10937 0.27829,0.80568 0.41745,1.74318 0.41748,2.8125 m -27.57568,5.20752 c -0.52737,0.35157 -1.14261,0.7251 -1.84571,1.12061 -0.6885,0.39551 -1.45754,0.76172 -2.30713,1.09863 -0.84963,0.32227 -1.7798,0.59326 -2.79052,0.81299 -0.99611,0.21973 -2.06545,0.32959 -3.20801,0.32959 -1.9629,0 -3.66945,-0.38086 -5.11963,-1.14258 -1.4502,-0.77637 -2.65137,-1.8457 -3.60352,-3.20801 -0.95215,-1.3623 -1.6626,-2.98095 -2.13134,-4.85595 -0.46876,-1.88964 -0.70313,-3.95507 -0.70313,-6.19629 0,-2.44628 0.22705,-4.60692 0.68115,-6.48194 0.4541,-1.88962 1.15723,-3.47165 2.10938,-4.74609 0.95214,-1.28904 2.16064,-2.26316 3.62549,-2.92236 1.46483,-0.65915 3.20067,-0.98874 5.20752,-0.98877 1.46482,3e-5 2.74656,0.19046 3.84521,0.57129 1.11326,0.38088 2.07273,0.9009 2.87842,1.56005 0.82029,0.64456 1.50144,1.4136 2.04346,2.30713 0.55661,0.87893 1.01071,1.82376 1.3623,2.83448 l -3.75732,1.23046 c -0.55666,-1.6113 -1.34768,-2.85642 -2.37305,-3.73535 -1.01076,-0.89353 -2.32912,-1.3403 -3.95508,-1.34033 -1.31837,3e-5 -2.43898,0.25637 -3.36181,0.76904 -0.92287,0.49808 -1.67726,1.24515 -2.26319,2.24121 -0.5713,0.98147 -0.98878,2.20462 -1.25244,3.66944 -0.24903,1.45021 -0.37354,3.12746 -0.37354,5.03174 0,3.92579 0.61523,6.90674 1.84571,8.94287 1.24511,2.03613 3.12743,3.0542 5.64697,3.0542 0.70311,0 1.35497,-0.0586 1.95557,-0.17578 0.61521,-0.13184 1.16453,-0.27832 1.64795,-0.43946 0.49802,-0.17577 0.92283,-0.35156 1.27441,-0.52734 0.36619,-0.19043 0.64451,-0.35156 0.83496,-0.4834 l 0,-7.38281 -6.43799,0 0,-3.51563 10.52491,0 0,12.56836 m 52.60253,-53.547689 c -2e-5,1.245124 -0.22707,2.395025 -0.68115,3.449707 -0.45412,1.040043 -1.14992,1.940921 -2.0874,2.702637 -0.92287,0.76172 -2.10207,1.354981 -3.5376,1.779785 -1.42091,0.424804 -3.11281,0.637206 -5.07568,0.637207 -3.42775,-10e-7 -6.10108,-0.673828 -8.02002,-2.021485 -1.9043,-1.347653 -3.12012,-3.295893 -3.64746,-5.844726 l 4.06494,-0.812988 c 0.17577,0.805671 0.43945,1.538092 0.79102,2.197265 0.35155,0.659185 0.83495,1.230474 1.45019,1.713867 0.61523,0.468754 1.36962,0.834965 2.26318,1.098633 0.89355,0.263675 1.96288,0.395511 3.20801,0.395508 1.05467,3e-6 2.01415,-0.09521 2.87842,-0.285644 0.87889,-0.205075 1.62596,-0.520016 2.24121,-0.944825 0.62986,-0.4248 1.12059,-0.966792 1.47217,-1.625976 0.35154,-0.659174 0.52732,-1.450188 0.52734,-2.373047 -2e-5,-1.025382 -0.24172,-1.860342 -0.7251,-2.504883 -0.46876,-0.64452 -1.09132,-1.171863 -1.86767,-1.582031 -0.77639,-0.410144 -1.65529,-0.739733 -2.63672,-0.98877 -0.96681,-0.263658 -1.94826,-0.520006 -2.94434,-0.769043 -0.73243,-0.190415 -1.47217,-0.388169 -2.21923,-0.593261 -0.74708,-0.219712 -1.46486,-0.468735 -2.15332,-0.747071 -0.68849,-0.292953 -1.33302,-0.629867 -1.9336,-1.010742 -0.58594,-0.395491 -1.10596,-0.864241 -1.56006,-1.40625 -0.43945,-0.556622 -0.78369,-1.201153 -1.03271,-1.933594 -0.24903,-0.74705 -0.37354,-1.611307 -0.37354,-2.592773 0,-1.406227 0.26367,-2.607397 0.79102,-3.603516 0.52734,-1.010715 1.25244,-1.831027 2.17529,-2.460937 0.92285,-0.644503 2.01415,-1.113252 3.27393,-1.40625 1.25975,-0.292939 2.62206,-0.439423 4.08691,-0.439453 1.69921,3e-5 3.14207,0.153838 4.32862,0.461425 1.20115,0.292999 2.21189,0.739775 3.03222,1.340332 0.83494,0.600614 1.50144,1.347684 1.99951,2.241211 0.49803,0.878932 0.89353,1.904321 1.18653,3.076172 l -4.13086,0.725098 c -0.16116,-0.747047 -0.40285,-1.413551 -0.7251,-1.999512 -0.30764,-0.585912 -0.72512,-1.076635 -1.25244,-1.472168 -0.51271,-0.395481 -1.13527,-0.695774 -1.86768,-0.900879 -0.73243,-0.205051 -1.59669,-0.30759 -2.59277,-0.307617 -1.17189,2.7e-5 -2.15333,0.124539 -2.94434,0.373535 -0.79102,0.234402 -1.42823,0.563991 -1.91162,0.98877 -0.4834,0.410181 -0.83497,0.900903 -1.05469,1.472168 -0.20508,0.571312 -0.30762,1.186546 -0.30761,1.845703 -10e-6,0.878928 0.19042,1.5967 0.57129,2.15332 0.3955,0.542012 0.92284,0.996113 1.58203,1.362305 0.67382,0.351581 1.45018,0.644549 2.3291,0.878906 0.89354,0.234393 1.84569,0.483416 2.85644,0.74707 0.80565,0.205096 1.61864,0.424822 2.43897,0.65918 0.82029,0.219743 1.60398,0.483415 2.35107,0.791016 0.7617,0.307632 1.46483,0.673843 2.10938,1.098633 0.65916,0.41017 1.23044,0.915541 1.71387,1.516113 0.48337,0.600598 0.86423,1.303723 1.14257,2.109375 0.2783,0.805674 0.41746,1.743173 0.41748,2.8125 m -29.04785,8.129883 -3.03222,-8.393555 -12.37061,0 -3.01025,8.393555 -4.30664,0 11.20605,-29.641114 4.76807,0 11.0083,29.641114 -4.2627,0 M 876.7558,69.54995 c -0.19045,-0.556619 -0.3882,-1.120584 -0.59326,-1.691895 -0.2051,-0.571266 -0.39553,-1.113257 -0.57129,-1.625976 -0.16115,-0.512671 -0.30763,-0.959448 -0.43946,-1.340332 -0.1172,-0.395482 -0.20509,-0.681127 -0.26367,-0.856934 -0.0586,0.175807 -0.1465,0.461452 -0.26367,0.856934 -0.1172,0.395533 -0.26368,0.849634 -0.43945,1.362304 -0.16115,0.512719 -0.33693,1.054711 -0.52735,1.625977 -0.17579,0.571311 -0.35889,1.127951 -0.54931,1.669922 l -3.31787,9.294433 10.17334,0 -3.20801,-9.294433 m -37.94678,-8.6792 18.0835,0 0,3.427735 -6.94336,0 0,22.785644 6.94336,0 0,3.427735 -18.0835,0 0,-3.427735 6.94336,0 0,-22.785644 -6.94336,0 0,-3.427735 m -0.89966,-33.376937 c -2e-5,2.46095 -0.29299,4.636241 -0.8789,6.525878 -0.58596,1.875007 -1.43557,3.449713 -2.54883,4.724122 -1.1133,1.274416 -2.48293,2.241212 -4.10889,2.90039 -1.61134,0.644532 -3.44239,0.966797 -5.49316,0.966797 l -8.12989,0 0,-29.641113 6.8335,0 c 2.31444,2.9e-5 4.3579,0.285674 6.13037,0.856933 1.78709,0.556669 3.28856,1.42825 4.5044,2.614746 1.21579,1.186549 2.13132,2.695336 2.74658,4.526368 0.62986,1.831074 0.9448,4.006365 0.94482,6.525879 m -4.21875,0 c -2e-5,-1.977522 -0.2051,-3.669415 -0.61523,-5.075684 -0.41018,-1.406228 -1.03274,-2.548805 -1.86768,-3.427734 -0.83498,-0.893531 -1.88234,-1.545385 -3.14209,-1.955567 -1.25978,-0.424779 -2.74659,-0.637181 -4.46045,-0.637207 l -2.65869,0 0,22.785645 3.55957,0 c 3.10546,3e-6 5.41258,-0.974117 6.92139,-2.922364 1.50877,-1.948233 2.26316,-4.870594 2.26318,-8.767089 M 804.57684,42.611 793.15106,17.781898 c 0.0586,0.629908 0.11718,1.274438 0.17578,1.933594 0.0439,0.556663 0.0806,1.164573 0.10987,1.823731 0.0439,0.644551 0.0659,1.252461 0.0659,1.82373 l 0,19.248047 -3.73535,0 0,-29.641113 4.87793,0 11.60157,25.004883 c -0.0733,-0.585933 -0.13918,-1.215815 -0.19776,-1.889649 -0.0586,-0.571282 -0.10988,-1.215812 -0.15381,-1.933594 -0.0293,-0.717764 -0.044,-1.450185 -0.0439,-2.197265 l 0,-18.984375 3.77929,0 0,29.641113 -5.05371,0 m -40.91311,-29.641113 18.08349,0 0,3.427734 -6.94336,0 0,22.785645 6.94336,0 0,3.427734 -18.08349,0 0,-3.427734 6.94336,0 0,-22.785645 -6.94336,0 0,-3.427734 m -9.05274,29.641113 -4.57031,0 -2.28516,-8.503418 c -0.0732,-0.278311 -0.16114,-0.607901 -0.26367,-0.988769 -0.10255,-0.38085 -0.21242,-0.783682 -0.32959,-1.208497 -0.10255,-0.439442 -0.21241,-0.886218 -0.32959,-1.340332 -0.10255,-0.468737 -0.20509,-0.922838 -0.30761,-1.362304 -0.24904,-1.025376 -0.49807,-2.094711 -0.74707,-3.208008 -0.26369,1.127945 -0.52004,2.204604 -0.76905,3.22998 -0.10255,0.439466 -0.21241,0.893568 -0.32959,1.362305 -0.10255,0.454113 -0.21241,0.90089 -0.32959,1.340332 -0.10255,0.424815 -0.20509,0.827647 -0.30761,1.208496 -0.10256,0.36622 -0.19045,0.688486 -0.26368,0.966797 l -2.3291,8.503418 -4.57031,0 -4.63623,-29.641113 4.15283,0 2.39502,18.347168 c 0.11718,0.952159 0.2124,1.882333 0.28564,2.790527 0.0879,0.908211 0.16846,1.721198 0.2417,2.438965 0.0732,0.834966 0.13916,1.625981 0.19776,2.373047 0.23437,-1.010738 0.46874,-2.00683 0.70312,-2.988281 0.10253,-0.424798 0.20507,-0.856926 0.30762,-1.296387 0.10253,-0.454093 0.20507,-0.90087 0.30762,-1.340332 0.11718,-0.439444 0.22704,-0.856924 0.32959,-1.252442 0.10253,-0.410145 0.19774,-0.78368 0.28564,-1.120605 l 2.39502,-8.76709 3.84522,0 2.39502,8.76709 c 0.0879,0.322277 0.18308,0.688487 0.28564,1.098633 0.10252,0.410166 0.20506,0.83497 0.30762,1.274414 0.11717,0.424813 0.22703,0.864266 0.32959,1.318359 0.10252,0.439461 0.20506,0.871589 0.30761,1.296387 0.23436,0.981451 0.46873,1.984868 0.70313,3.010254 0.0146,4e-6 0.0439,-0.24902 0.0879,-0.747071 0.0439,-0.498041 0.10252,-1.120599 0.17578,-1.867675 0.0732,-0.747064 0.15379,-1.567375 0.2417,-2.460938 0.0879,-0.893545 0.17576,-1.735829 0.26367,-2.526855 l 2.28516,-18.347168 4.15283,0 L 754.61103,42.611 M 98.19043,34.041664 c -2.5e-5,1.245124 -0.227076,2.395025 -0.681153,3.449707 -0.454125,1.040043 -1.149925,1.940921 -2.087402,2.702637 -0.922873,0.76172 -2.102071,1.354981 -3.537598,1.779785 -1.420915,0.424804 -3.112808,0.637207 -5.075683,0.637207 -3.427745,0 -6.101082,-0.673828 -8.02002,-2.021484 -1.9043,-1.347654 -3.120119,-3.295894 -3.647461,-5.844727 l 4.064942,-0.812988 c 0.175775,0.805671 0.439447,1.538092 0.791015,2.197265 0.351556,0.659186 0.834954,1.230474 1.450196,1.713868 0.615225,0.468754 1.369619,0.834964 2.263183,1.098632 0.893544,0.263675 1.962879,0.395511 3.208008,0.395508 1.054673,3e-6 2.014145,-0.09521 2.878418,-0.285644 0.878889,-0.205075 1.625959,-0.520016 2.241211,-0.944824 0.629863,-0.424801 1.120586,-0.966792 1.472168,-1.625977 0.351542,-0.659173 0.527323,-1.450188 0.527344,-2.373047 -2.1e-5,-1.025381 -0.24172,-1.860342 -0.725098,-2.504883 -0.468769,-0.64452 -1.091327,-1.171863 -1.867676,-1.582031 -0.776384,-0.410144 -1.65529,-0.739733 -2.636719,-0.98877 -0.966811,-0.263658 -1.948255,-0.520005 -2.944335,-0.769042 -0.732434,-0.190416 -1.472179,-0.38817 -2.219239,-0.593262 -0.74708,-0.219712 -1.464852,-0.468735 -2.15332,-0.747071 -0.688484,-0.292953 -1.333015,-0.629866 -1.933594,-1.010742 -0.585943,-0.395491 -1.105962,-0.86424 -1.560058,-1.40625 -0.439458,-0.556622 -0.783696,-1.201153 -1.032715,-1.933593 -0.249027,-0.74705 -0.373539,-1.611307 -0.373535,-2.592774 -4e-6,-1.406226 0.263668,-2.607397 0.791015,-3.603516 0.527339,-1.010715 1.252436,-1.831027 2.175293,-2.460937 0.922845,-0.644502 2.014152,-1.113252 3.273926,-1.40625 1.259755,-0.292939 2.622058,-0.439423 4.086914,-0.439453 1.699204,3e-5 3.142073,0.153838 4.328613,0.461426 1.201153,0.292998 2.211894,0.739775 3.032227,1.340332 0.834939,0.600613 1.501442,1.347683 1.999512,2.241211 0.498023,0.878931 0.893531,1.904321 1.186523,3.076171 l -4.130859,0.725098 C 93.17332,19.166199 92.931621,18.499696 92.609375,17.913734 92.301739,17.327822 91.884259,16.8371 91.356934,16.441566 90.844221,16.046085 90.221663,15.745792 89.489258,15.540688 88.756821,15.335636 87.892564,15.233097 86.896484,15.23307 c -1.171887,2.7e-5 -2.153331,0.124539 -2.944336,0.373536 -0.791025,0.234401 -1.428231,0.56399 -1.911621,0.988769 -0.483406,0.410181 -0.834968,0.900904 -1.054687,1.472168 -0.205086,0.571313 -0.307625,1.186546 -0.307617,1.845703 -8e-6,0.878928 0.190422,1.596701 0.571289,2.15332 0.395499,0.542012 0.922843,0.996113 1.582031,1.362305 0.673818,0.351581 1.450184,0.64455 2.329102,0.878906 0.893542,0.234393 1.845689,0.483416 2.856445,0.747071 0.805648,0.205095 1.618636,0.424821 2.438965,0.659179 0.820294,0.219743 1.603985,0.483415 2.351074,0.791016 0.761698,0.307633 1.464823,0.673843 2.109375,1.098633 0.659157,0.41017 1.230446,0.915541 1.713867,1.516113 0.483375,0.600599 0.864234,1.303723 1.142578,2.109375 0.278296,0.805674 0.417456,1.743173 0.417481,2.8125 M 71.164062,27.208168 c -2.4e-5,2.534192 -0.256372,4.760752 -0.769042,6.679688 -0.512719,1.918951 -1.252465,3.530278 -2.219239,4.833984 -0.966817,1.289065 -2.15334,2.263185 -3.55957,2.922363 -1.391618,0.644531 -2.966324,0.966797 -4.724121,0.966797 -1.860363,0 -3.493662,-0.344238 -4.899903,-1.032715 -1.406257,-0.688475 -2.57813,-1.684568 -3.515625,-2.988281 -0.937504,-1.318355 -1.640628,-2.929681 -2.109375,-4.833984 -0.468752,-1.918935 -0.703127,-4.10155 -0.703125,-6.547852 -2e-6,-2.534162 0.249021,-4.746074 0.747071,-6.635742 0.498043,-1.889625 1.22314,-3.464331 2.175293,-4.724121 0.952142,-1.259738 2.124016,-2.204562 3.515625,-2.834473 1.40624,-0.629853 3.017566,-0.944794 4.833984,-0.944824 3.618147,3e-5 6.394023,1.274443 8.327637,3.823242 1.93357,2.534203 2.900366,6.306172 2.90039,11.315918 m -4.416503,0 c -2.1e-5,-3.955059 -0.578633,-6.892068 -1.73584,-8.811035 -1.157244,-1.933568 -2.849137,-2.900364 -5.075684,-2.900391 -2.285167,2.7e-5 -3.999033,0.966823 -5.141601,2.900391 -1.142586,1.918967 -1.713874,4.855976 -1.713868,8.811035 -6e-6,3.955089 0.578606,6.943367 1.73584,8.964844 1.157217,2.021488 2.856434,3.032229 5.097656,3.032226 2.38768,3e-6 4.123518,-1.025386 5.20752,-3.076172 1.083965,-2.050773 1.625956,-5.024403 1.625977,-8.920898 M 44.027832,21.407387 c -2.5e-5,1.230488 -0.219751,2.41701 -0.65918,3.55957 -0.424828,1.127946 -1.084007,2.131363 -1.977539,3.010254 -0.878927,0.87892 -1.984883,1.582044 -3.317871,2.109375 -1.333025,0.527355 -2.900406,0.791027 -4.702148,0.791016 l -6.174317,0 0,11.293945 -4.196777,0 0,-29.641113 10.107422,0 c 1.831039,2.9e-5 3.427717,0.212431 4.790039,0.637207 1.362285,0.424833 2.497538,1.025418 3.405762,1.801757 0.90818,0.776394 1.589332,1.713893 2.043457,2.8125 0.454077,1.084008 0.681127,2.292503 0.681152,3.625489 m -4.21875,0.06592 c -2e-5,-1.831032 -0.600606,-3.215308 -1.801758,-4.152832 -1.201189,-0.952123 -3.002945,-1.428197 -5.405273,-1.428223 l -5.405274,0 0,11.667481 5.581055,0 c 1.201157,1.4e-5 2.241195,-0.153794 3.120117,-0.461426 0.893538,-0.32225 1.625959,-0.754379 2.197266,-1.296387 0.585918,-0.541975 1.018047,-1.186506 1.296387,-1.933594 0.2783,-0.747051 0.41746,-1.54539 0.41748,-2.395019"
       inkscape:connector-curvature="0" />
    <path
       id="AircraftSymbol"
       style="opacity:0.98999999;fill:none;stroke:#ffffff;stroke-width:3;stroke-linecap:square;stroke-miterlimit:4;stroke-opacity:1"
       d="m 628.51756,543.21194 0,-51.24702 -59.39995,0 0,-109.48226 120.54696,0 0,-54.74114 -120.54696,0 0,-108.31756 c -19.41175,0 -38.8235,0 -58.23525,0 l 0,108.31756 -120.54696,0 0,54.74114 120.54696,0 0,109.48226 -59.39995,0 0,51.24702 c 59.01172,0 118.02343,0 177.03515,0 z"
       inkscape:connector-curvature="0"
       sodipodi:nodetypes="ccccccccccccccccc" />
    <g
       style="display:inline"
       id="HeadingIndicator">
      <path
         sodipodi:nodetypes="cccccc"
         inkscape:connector-curvature="0"
         id="rect4481"
         d="m 497.37888,139.61653 40.76346,-13.5029 40.76347,13.5029 0,44.33028 -81.52694,0 z"
         style="opacity:0.98999999;fill:none;stroke:#ffffff;stroke-width:5;stroke-linecap:square;stroke-linejoin:miter;stroke-miterlimit:4;stroke-opacity:1;stroke-dashoffset:0" />
      <text
         xml:space="preserve"
         style="font-size:41.24978638px;font-style:normal;font-variant:normal;font-weight:normal;font-stretch:normal;text-align:center;line-height:100%;letter-spacing:0px;word-spacing:0px;writing-mode:lr-tb;text-anchor:middle;fill:#ffffff;fill-opacity:1;stroke:none;font-family:Liberation Mono;-inkscape-font-specification:Liberation Mono"
         x="538.40057"
         y="175.39212"
         id="Heading"
         sodipodi:linespacing="100%"><tspan
           sodipodi:role="line"
           id="tspan4499"
           data-bind="text: headingTextAnimation"
           x="538.40057"
           y="175.39212"
           transform="translate(0.24257198,0)">999</tspan></text>
    </g>
    <text
       xml:space="preserve"
       style="font-size:45px;font-style:normal;font-variant:normal;font-weight:normal;font-stretch:normal;text-align:start;line-height:100%;letter-spacing:0px;word-spacing:0px;writing-mode:lr-tb;text-anchor:start;fill:#ffffff;fill-opacity:1;stroke:none;font-family:Liberation Mono;-inkscape-font-specification:Liberation Mono"
       x="19.44043"
       y="90.511864"
       id="Latitude"
       sodipodi:linespacing="100%"><tspan
         sodipodi:role="line"
         id="tspan3794"
         data-bind="text: latitudeText"
         x="19.44043"
         y="90.511864"
         dx="0 0 0 0 -10.893617">N59_59.99</tspan></text>
    <text
       sodipodi:linespacing="100%"
       id="Longitude"
       y="138.85204"
       x="19.44043"
       style="font-size:45px;font-style:normal;font-variant:normal;font-weight:normal;font-stretch:normal;text-align:start;line-height:100%;letter-spacing:0px;word-spacing:0px;writing-mode:lr-tb;text-anchor:start;fill:#ffffff;fill-opacity:1;stroke:none;font-family:Liberation Mono;-inkscape-font-specification:Liberation Mono"
       xml:space="preserve"><tspan
         y="138.85204"
         x="19.44043"
         id="tspan3798"
         data-bind="text: longitudeText"
         sodipodi:role="line"
         dx="0 0 0 0 0 -9.5319147">E179_59.99</tspan></text>
    <text
       sodipodi:linespacing="100%"
       id="Wind"
       y="42.171547"
       x="1013.0569"
       style="font-size:45px;font-style:normal;font-variant:normal;font-weight:normal;font-stretch:normal;text-align:end;line-height:100%;letter-spacing:0px;word-spacing:0px;writing-mode:lr-tb;text-anchor:end;fill:#ffffff;fill-opacity:1;stroke:none;font-family:Liberation Mono;-inkscape-font-specification:Liberation Mono"
       xml:space="preserve"><tspan
         y="42.171547"
         x="1013.0569"
         id="tspan3802"
         data-bind="text: windText"
         sodipodi:role="line">360/12</tspan></text>
    <text
       xml:space="preserve"
       style="font-size:45px;font-style:normal;font-variant:normal;font-weight:normal;font-stretch:normal;text-align:end;line-height:100%;letter-spacing:0px;word-spacing:0px;writing-mode:lr-tb;text-anchor:end;fill:#ffffff;fill-opacity:1;stroke:none;font-family:Liberation Mono;-inkscape-font-specification:Liberation Mono"
       x="1012.991"
       y="90.511864"
       id="IAS"
       sodipodi:linespacing="100%"><tspan
         sodipodi:role="line"
         id="tspan3818"
         data-bind="text: iasText"
         x="1012.991"
         y="90.511864">999</tspan></text>
    <text
       sodipodi:linespacing="100%"
       id="GS"
       y="138.85204"
       x="1012.991"
       style="font-size:45px;font-style:normal;font-variant:normal;font-weight:normal;font-stretch:normal;text-align:end;line-height:100%;letter-spacing:0px;word-spacing:0px;writing-mode:lr-tb;text-anchor:end;fill:#ffffff;fill-opacity:1;stroke:none;font-family:Liberation Mono;-inkscape-font-specification:Liberation Mono"
       xml:space="preserve"><tspan
         y="138.85204"
         x="1012.991"
         id="tspan3822"
         data-bind="text: gsText"
         sodipodi:role="line">999</tspan></text>
    <text
       xml:space="preserve"
       style="font-size:45px;font-style:normal;font-variant:normal;font-weight:normal;font-stretch:normal;text-align:end;line-height:100%;letter-spacing:0px;word-spacing:0px;writing-mode:lr;text-anchor:end;fill:#f9ff35;fill-opacity:1;stroke:none;font-family:Liberation Mono;-inkscape-font-specification:Liberation Mono"
       x="228.58784"
       y="551.44775"
       id="VORLine1"
       sodipodi:linespacing="100%"><tspan
         sodipodi:role="line"
         data-bind="text: vorLine1"
         id="tspan3085">%.4s</tspan></text>
    <text
       sodipodi:linespacing="100%"
       id="VORLine2"
       y="599.90167"
       x="272.95529"
       style="font-size:40px;font-style:normal;font-variant:normal;font-weight:normal;font-stretch:normal;text-align:end;line-height:100%;letter-spacing:0px;word-spacing:0px;writing-mode:lr;text-anchor:end;fill:#f9ff35;fill-opacity:1;stroke:none;font-family:Liberation Mono;-inkscape-font-specification:Liberation Mono"
       xml:space="preserve"><tspan
         sodipodi:role="line"
         data-bind="text: vorLine2"
         id="tspan3063">%4dnm</tspan></text>
    <text
       xml:space="preserve"
       style="font-size:36px;font-style:normal;font-variant:normal;font-weight:normal;font-stretch:normal;text-align:end;line-height:100%;letter-spacing:0px;word-spacing:0px;writing-mode:lr;text-anchor:end;fill:#f9ff35;fill-opacity:1;stroke:none;font-family:Liberation Mono;-inkscape-font-specification:Liberation Mono"
       x="272.2756"
       y="648.35559"
       id="VORLine3"
       sodipodi:linespacing="100%"><tspan
         sodipodi:role="line"
         data-bind="text: vorLine3"
         id="tspan3081">%.12s</tspan></text>
    <text
       sodipodi:linespacing="100%"
       id="VORLine4"
       y="696.80945"
       x="272.2756"
       style="font-size:36px;font-style:normal;font-variant:normal;font-weight:normal;font-stretch:normal;text-align:end;line-height:100%;letter-spacing:0px;word-spacing:0px;writing-mode:lr;text-anchor:end;fill:#f9ff35;fill-opacity:1;stroke:none;font-family:Liberation Mono;-inkscape-font-specification:Liberation Mono"
       xml:space="preserve"><tspan
         sodipodi:role="line"
         data-bind="text: vorLine4"
         id="tspan3079">%.12s</tspan></text>
    <text
       xml:space="preserve"
       style="font-size:36px;font-style:normal;font-variant:normal;font-weight:normal;font-stretch:normal;text-align:end;line-height:100%;letter-spacing:0px;word-spacing:0px;writing-mode:lr;text-anchor:end;fill:#f9ff35;fill-opacity:1;stroke:none;font-family:Liberation Mono;-inkscape-font-specification:Liberation Mono"
       x="272.2756"
       y="745.26337"
       id="VORLine5"
       sodipodi:linespacing="100%"><tspan
         sodipodi:role="line"
         data-bind="text: vorLine5"
         id="tspan3077">%.12s</tspan></text>
    <text
       sodipodi:linespacing="100%"
       id="ADFLine1"
       y="551.44775"
       x="1011.7472"
       style="font-size:45px;font-style:normal;font-variant:normal;font-weight:normal;font-stretch:normal;text-align:end;line-height:100%;letter-spacing:0px;word-spacing:0px;writing-mode:lr;text-anchor:end;fill:#1be900;fill-opacity:1;stroke:none;font-family:Liberation Mono;-inkscape-font-specification:Liberation Mono"
       xml:space="preserve"><tspan
         sodipodi:role="line"
         data-bind="text: adfLine1"
         id="tspan3083">%.4s</tspan></text>
    <text
       xml:space="preserve"
       style="font-size:40px;font-style:normal;font-variant:normal;font-weight:normal;font-stretch:normal;text-align:end;line-height:100%;letter-spacing:0px;word-spacing:0px;writing-mode:lr;text-anchor:end;fill:#1be900;fill-opacity:1;stroke:none;font-family:Liberation Mono;-inkscape-font-specification:Liberation Mono"
       x="1011.7472"
       y="599.90167"
       id="ADFLine2"
       sodipodi:linespacing="100%"><tspan
         sodipodi:role="line"
         data-bind="text: adfLine2"
         id="tspan3067">%4dnm</tspan></text>
    <text
       sodipodi:linespacing="100%"
       id="ADFLine3"
       y="648.35559"
       x="1011.7472"
       style="font-size:36px;font-style:normal;font-variant:normal;font-weight:normal;font-stretch:normal;text-align:end;line-height:100%;letter-spacing:0px;word-spacing:0px;writing-mode:lr;text-anchor:end;fill:#1be900;fill-opacity:1;stroke:none;font-family:Liberation Mono;-inkscape-font-specification:Liberation Mono"
       xml:space="preserve"><tspan
         sodipodi:role="line"
         data-bind="text: adfLine3"
         id="tspan3073">%.12s</tspan></text>
    <text
       xml:space="preserve"
       style="font-size:36px;font-style:normal;font-variant:normal;font-weight:normal;font-stretch:normal;text-align:end;line-height:100%;letter-spacing:0px;word-spacing:0px;writing-mode:lr;text-anchor:end;fill:#1be900;fill-opacity:1;stroke:none;font-family:Liberation Mono;-inkscape-font-specification:Liberation Mono"
       x="1011.7472"
       y="696.80945"
       id="ADFLine4"
       sodipodi:linespacing="100%"><tspan
         sodipodi:role="line"
         data-bind="text: adfLine4"
         id="tspan3071">%.12s</tspan></text>
    <text
       sodipodi:linespacing="100%"
       id="ADFLine5"
       y="745.26337"
       x="1011.7472"
       style="font-size:36px;font-style:normal;font-variant:normal;font-weight:normal;font-stretch:normal;text-align:end;line-height:100%;letter-spacing:0px;word-spacing:0px;writing-mode:lr;text-anchor:end;fill:#1be900;fill-opacity:1;stroke:none;font-family:Liberation Mono;-inkscape-font-specification:Liberation Mono"
       xml:space="preserve"><tspan
         sodipodi:role="line"
         data-bind="text: adfLine5"
         id="tspan3075">%.12s</tspan></text>
    <text
       xml:space="preserve"
       style="font-size:45px;font-style:normal;font-variant:normal;font-weight:normal;font-stretch:normal;text-align:center;line-height:100%;letter-spacing:0px;word-spacing:0px;writing-mode:lr-tb;text-anchor:middle;fill:#ffffff;fill-opacity:1;stroke:none;font-family:Liberation Mono;-inkscape-font-specification:Liberation Mono"
       x="539.59351"
       y="744.82391"
       id="HDGCOG"
       sodipodi:linespacing="100%"><tspan
         sodipodi:role="line"
         id="tspan3937"
         x="539.59351"
         y="744.82391">HDG</tspan></text>
  </g>
</svg>
