<?xml version="1.0" encoding="UTF-8" standalone="no"?>
<!-- Created with Inkscape (http://www.inkscape.org/) -->

<svg
   xmlns:dc="http://purl.org/dc/elements/1.1/"
   xmlns:cc="http://creativecommons.org/ns#"
   xmlns:rdf="http://www.w3.org/1999/02/22-rdf-syntax-ns#"
   xmlns:svg="http://www.w3.org/2000/svg"
   xmlns="http://www.w3.org/2000/svg"
   xmlns:sodipodi="http://sodipodi.sourceforge.net/DTD/sodipodi-0.dtd"
   xmlns:inkscape="http://www.inkscape.org/namespaces/inkscape"
   width="1024px"
   height="768px"
   id="svg3114"
   version="1.1"
   inkscape:version="0.48.3.1 r9886"
   sodipodi:docname="PFD-config.svg">
  <defs
     id="defs3116" />
  <sodipodi:namedview
     id="base"
     pagecolor="#ffffff"
     bordercolor="#666666"
     borderopacity="1.0"
     inkscape:pageopacity="0.0"
     inkscape:pageshadow="2"
     inkscape:zoom="0.5"
     inkscape:cx="393.69154"
     inkscape:cy="503.72165"
     inkscape:current-layer="layer1"
     inkscape:document-units="px"
     showgrid="false"
     inkscape:window-width="1236"
     inkscape:window-height="782"
     inkscape:window-x="40"
     inkscape:window-y="-1"
     inkscape:window-maximized="1" />
  <metadata
     id="metadata3119">
    <rdf:RDF>
      <cc:Work
         rdf:about="">
        <dc:format>image/svg+xml</dc:format>
        <dc:type
           rdf:resource="http://purl.org/dc/dcmitype/StillImage" />
        <dc:title></dc:title>
      </cc:Work>
    </rdf:RDF>
  </metadata>
  <g
     id="layer1"
     inkscape:label="Layer 1"
     inkscape:groupmode="layer">
    <path
       style="opacity:0.98999999;fill:#000000;fill-opacity:1;stroke:none"
       d="m 0,0 1024,0 0,768 -1024,0 z"
       id="rect3122" />
    <path
       style="opacity:0.98999999;fill:#ffffff;fill-opacity:1;stroke:#d541c0;stroke-width:10;stroke-miterlimit:4;stroke-opacity:1"
       d="m 460,80 104,0 c 27.7,0 50,22.3 50,50 l 0,28 c 0,27.7 -22.3,50 -50,50 l -104,0 c -27.7,0 -50,-22.3 -50,-50 l 0,-28 c 0,-27.7 22.3,-50 50,-50 z"
       id="HSI"
       inkscape:connector-curvature="0" />
    <g
       style="font-size:80px;font-style:normal;font-variant:normal;font-weight:normal;font-stretch:normal;text-align:start;line-height:100%;letter-spacing:0px;word-spacing:0px;writing-mode:lr-tb;text-anchor:start;fill:#000000;fill-opacity:1;stroke:none;font-family:Liberation Sans;-inkscape-font-specification:Liberation Sans"
       id="text3913" />
    <g
       style="font-size:80px;font-style:normal;font-variant:normal;font-weight:normal;font-stretch:normal;text-align:start;line-height:100%;letter-spacing:0px;word-spacing:0px;writing-mode:lr-tb;text-anchor:start;fill:#000000;fill-opacity:1;stroke:none;font-family:Liberation Sans;-inkscape-font-specification:Liberation Sans"
       id="text3913-2" />
    <path
       style="opacity:0.98999999;fill:#ffffff;fill-opacity:1;stroke:#d541c0;stroke-width:10;stroke-miterlimit:4;stroke-opacity:1"
       d="m 708,320 120,0 c 27.7,0 50,22.3 50,50 l 0,28 c 0,27.7 -22.3,50 -50,50 l -120,0 c -27.7,0 -50,-22.3 -50,-50 l 0,-28 c 0,-27.7 22.3,-50 50,-50 z"
       id="QNH"
       inkscape:connector-curvature="0" />
    <path
       inkscape:connector-curvature="0"
       d="m 844.26953,409.53906 0,-25.50781 -29.76562,0 0,25.50781 -7.46094,0 0,-55.03906 7.46094,0 0,23.28125 29.76562,0 0,-23.28125 7.46094,0 0,55.03906 -7.46094,0 m -59.33594,0 -29.45312,-46.875 c 0.0521,1.27609 0.11717,2.53911 0.19531,3.78906 0.0521,1.06776 0.0911,2.20057 0.11719,3.39844 0.0521,1.17192 0.0781,2.21358 0.0781,3.125 l 0,36.5625 -6.64062,0 0,-55.03906 8.67187,0 29.76563,47.1875 c -0.0782,-1.27603 -0.1563,-2.55207 -0.23438,-3.82813 -0.0521,-1.09373 -0.10421,-2.27863 -0.15625,-3.55468 -0.0521,-1.30207 -0.0782,-2.53905 -0.0781,-3.71094 l 0,-36.09375 6.71875,0 0,55.03906 -8.98438,0 m -46.05468,-27.77344 c -6e-5,3.88024 -0.50787,7.43492 -1.52344,10.66407 -0.98964,3.20314 -2.43495,6.01563 -4.33594,8.4375 -1.87505,2.42188 -4.19276,4.40104 -6.95312,5.9375 -2.73442,1.51042 -5.8464,2.5 -9.33594,2.96875 0.54684,1.66666 1.15882,3.08593 1.83594,4.25781 0.70308,1.17187 1.49735,2.12239 2.38281,2.85156 0.88537,0.7552 1.86194,1.30208 2.92969,1.64063 1.0937,0.36457 2.30464,0.54686 3.63281,0.54687 0.72912,-1e-5 1.51037,-0.0521 2.34375,-0.15625 0.83328,-0.10417 1.54943,-0.22136 2.14844,-0.35156 l 0,5.23437 c -0.98964,0.23437 -2.08339,0.42968 -3.28125,0.58594 -1.17193,0.18228 -2.39588,0.27342 -3.67188,0.27344 -2.23962,-2e-5 -4.19275,-0.33856 -5.85937,-1.01563 -1.66671,-0.65105 -3.13806,-1.60157 -4.41407,-2.85156 -1.25003,-1.22397 -2.33076,-2.73438 -3.24218,-4.53125 -0.91149,-1.79688 -1.71878,-3.82813 -2.42188,-6.09375 -4.11461,-0.20833 -7.73439,-1.05468 -10.85937,-2.53906 -3.09898,-1.51041 -5.69012,-3.51562 -7.77344,-6.01563 -2.0573,-2.52603 -3.60678,-5.46873 -4.64844,-8.82812 -1.04167,-3.3854 -1.5625,-7.05727 -1.5625,-11.01563 0,-4.29684 0.59896,-8.17704 1.79688,-11.64062 1.19791,-3.4635 2.95572,-6.4062 5.27343,-8.82813 2.3177,-2.44786 5.16926,-4.32286 8.55469,-5.625 3.41144,-1.32806 7.31768,-1.99213 11.71875,-1.99218 4.37497,5e-5 8.25517,0.66412 11.64063,1.99218 3.41141,1.32818 6.26297,3.2162 8.55468,5.66407 2.31766,2.44796 4.07547,5.40369 5.27344,8.86718 1.19786,3.46358 1.79682,7.31775 1.79688,11.5625 m -7.61719,0 c -5e-5,-3.30726 -0.42974,-6.31507 -1.28906,-9.02343 -0.83339,-2.7083 -2.08338,-5.026 -3.75,-6.95313 -1.64067,-1.92704 -3.68494,-3.41141 -6.13282,-4.45312 -2.44795,-1.04162 -5.27347,-1.56245 -8.47656,-1.5625 -3.28128,5e-5 -6.15888,0.52088 -8.63281,1.5625 -2.47398,1.04171 -4.54429,2.52608 -6.21094,4.45312 -1.64064,1.92713 -2.87762,4.24483 -3.71094,6.95313 -0.8073,2.70836 -1.21095,5.71617 -1.21093,9.02343 -2e-5,3.30732 0.41665,6.34117 1.25,9.10157 0.85936,2.73439 2.10936,5.10418 3.75,7.10937 1.66664,1.97918 3.72393,3.52866 6.17187,4.64844 2.47393,1.09376 5.31247,1.64063 8.51563,1.64062 3.43746,10e-6 6.39319,-0.55989 8.86718,-1.67968 2.49996,-1.11979 4.54423,-2.66926 6.13282,-4.64844 1.61453,-2.00519 2.79943,-4.388 3.55468,-7.14844 0.7812,-2.76039 1.17183,-5.7682 1.17188,-9.02344 m -166.95703,-210.22656 0,-55.03906 7.46093,0 0,55.03906 -7.46093,0 m -11.13282,-15.19531 c -4e-5,2.31772 -0.45577,4.45314 -1.36718,6.40625 -0.88547,1.95313 -2.26567,3.64584 -4.14063,5.07812 -1.87504,1.40626 -4.24483,2.51303 -7.10937,3.32032 -2.83858,0.78125 -6.21097,1.17187 -10.11719,1.17187 -6.84898,0 -12.18751,-1.19791 -16.01563,-3.59375 -3.82813,-2.39583 -6.26302,-5.85936 -7.30468,-10.39062 l 7.22656,-1.44532 c 0.36457,1.43231 0.92447,2.73439 1.67969,3.90625 0.75519,1.17189 1.77082,2.18751 3.04687,3.04688 1.30207,0.83334 2.90363,1.48438 4.80469,1.95312 1.90102,0.46876 4.17966,0.70314 6.83594,0.70313 2.21351,1e-5 4.24476,-0.18229 6.09375,-0.54688 1.84892,-0.39061 3.43746,-0.97655 4.76562,-1.75781 1.32809,-0.78124 2.35673,-1.78384 3.08594,-3.00781 0.75517,-1.24999 1.13277,-2.73436 1.13281,-4.45313 -4e-5,-1.79685 -0.41671,-3.25519 -1.25,-4.375 -0.80733,-1.11977 -1.95316,-2.04424 -3.4375,-2.77343 -1.48441,-0.72915 -3.25524,-1.34113 -5.3125,-1.83594 -2.05732,-0.49477 -4.33596,-1.02862 -6.83594,-1.60156 -1.53648,-0.33852 -3.08595,-0.7031 -4.64843,-1.09375 -1.53648,-0.41664 -3.02085,-0.89841 -4.45313,-1.44532 -1.40626,-0.57288 -2.73439,-1.23695 -3.98437,-1.99218 -1.25001,-0.75518 -2.33074,-1.65362 -3.24219,-2.69532 -0.91147,-1.06767 -1.62761,-2.29163 -2.14844,-3.67187 -0.52084,-1.40621 -0.78125,-3.02079 -0.78125,-4.84375 0,-2.60412 0.52083,-4.83068 1.5625,-6.67969 1.0677,-1.87495 2.53905,-3.4114 4.41406,-4.60937 1.87499,-1.19787 4.08853,-2.07026 6.64063,-2.61719 2.55206,-0.54682 5.31248,-0.82026 8.28125,-0.82031 3.41143,5e-5 6.32809,0.27349 8.75,0.82031 2.42184,0.52089 4.46611,1.31516 6.13281,2.38281 1.66663,1.06776 2.99475,2.39589 3.98438,3.98438 1.01558,1.56254 1.82287,3.38546 2.42187,5.46875 l -7.34375,1.28906 c -0.36462,-1.32808 -0.89848,-2.51298 -1.60156,-3.55469 -0.67712,-1.04162 -1.57556,-1.91401 -2.69531,-2.61718 -1.11983,-0.70308 -2.48702,-1.23693 -4.10157,-1.60157 -1.58857,-0.36453 -3.46357,-0.54682 -5.625,-0.54687 -2.5521,5e-5 -4.70054,0.23442 -6.44531,0.70312 -1.71877,0.44276 -3.11199,1.05474 -4.17969,1.83594 -1.04168,0.7813 -1.79688,1.70578 -2.26562,2.77344 -0.44272,1.04171 -0.66408,2.17452 -0.66406,3.39843 -2e-5,1.64067 0.40363,2.99484 1.21093,4.0625 0.83332,1.04171 1.95311,1.9141 3.35938,2.61719 1.40623,0.70316 3.03383,1.2891 4.88281,1.75781 1.84894,0.46879 3.81508,0.93754 5.89844,1.40625 1.69268,0.39066 3.37236,0.79431 5.03906,1.21094 1.69268,0.39066 3.30726,0.87243 4.84375,1.44531 1.53642,0.54691 2.96871,1.19795 4.29688,1.95313 1.35412,0.75523 2.52599,1.67971 3.51562,2.77344 0.98954,1.09377 1.75777,2.38283 2.30469,3.86718 0.57287,1.4844 0.85933,3.22919 0.85937,5.23438 m -63.71093,15.19531 0,-25.50781 -29.76563,0 0,25.50781 -7.46094,0 0,-55.03906 7.46094,0 0,23.28125 29.76563,0 0,-23.28125 7.46093,0 0,55.03906 -7.46093,0"
       style="font-size:80px;font-style:normal;font-variant:normal;font-weight:normal;font-stretch:normal;text-align:start;line-height:100%;letter-spacing:0px;word-spacing:0px;writing-mode:lr-tb;text-anchor:start;fill:#000000;fill-opacity:1;stroke:none;font-family:Liberation Sans;-inkscape-font-specification:Liberation Sans"
       id="path4025"
       sodipodi:nodetypes="cccccccccccccccccscccccccccccccccccccccccccccccccccsscccccccccccccccccccscccccccccccccsscccccscccccccccccccscccccccccccccccccccccccccccccccccccccccc" />
  </g>
</svg>
